<?xml version="1.0" encoding="utf-8"?>
<!-- Generator: Adobe Illustrator 22.1.0, SVG Export Plug-In . SVG Version: 6.00 Build 0)  -->
<svg version="1.1" id="Layer_1" xmlns="http://www.w3.org/2000/svg" xmlns:xlink="http://www.w3.org/1999/xlink" x="0px" y="0px"
	 width="274.184px" height="150.368px" viewBox="0 0 274.184 150.368" enable-background="new 0 0 274.184 150.368" xml:space="preserve">
<style type="text/css">
	.st0{fill:none;stroke:#231F20;stroke-width:13.5;stroke-miterlimit:10;}
	.st1{fill:none;stroke:#231F20;stroke-width:1.5;stroke-miterlimit:10;}
	.st2{fill:#231F20;}
	.st3{display:none;fill:#231F20;}
</style>
<g>
	<polygon class="st0" points="111.3,6.8 111,75.5 130.7,134 91.2,109.6 40.1,109.6 40.1,6.8 	"/>
	<polygon class="st1" points="20.2,23.8 20.2,73.6 2.6,109.2 38.6,92.6 88.1,92.6 88.1,23.8 	"/>
	<path class="st2" d="M253.2,76.6c-0.6-0.5-2.7-2.4-6.2-2.4c-5.3,0-9.6,4.2-9.6,9.5c0,5.2,4.1,9.5,9.6,9.5c2,0,4.3-0.6,6.1-2.3v-1.6
		c-1.9,2.1-4.4,2.8-6.2,2.8c-3.7,0-8.3-2.9-8.3-8.3c0-4.7,3.5-8.5,8.3-8.5c2.4,0,4.7,1.1,6.2,2.9V76.6z M222.6,75.5h2.2
		c2.7,0,4.2,1.4,4.2,3.7c0,2.3-1.6,3.7-4,3.7h-2.4L222.6,75.5L222.6,75.5z M225,84.1c3.2,0,5.4-1.8,5.4-4.9c0-3.2-2.4-4.8-5.4-4.8
		h-3.6v18.5h1.2v-8.8C222.6,84.1,225,84.1,225,84.1z M199.3,74.4l7.1,13.3l-2.4,5.2h1.3l8.5-18.5h-1.3l-5.4,12l-6.4-12
		C200.7,74.4,199.3,74.4,199.3,74.4z M182.2,74.4H181v18.5h1.2v-8.3l0.5-0.5l8.7,8.8h1.7l-9.5-9.6l9-8.8H191l-8.7,8.7L182.2,74.4
		L182.2,74.4z M172.8,76.6c-0.6-0.5-2.7-2.4-6.2-2.4c-5.3,0-9.6,4.2-9.6,9.5c0,5.2,4.1,9.5,9.6,9.5c2,0,4.3-0.6,6.2-2.3v-1.6
		c-1.9,2.1-4.4,2.8-6.2,2.8c-3.7,0-8.3-2.9-8.3-8.3c0-4.7,3.5-8.5,8.3-8.5c2.4,0,4.7,1.1,6.2,2.9L172.8,76.6L172.8,76.6z
		 M147.6,92.9h1.2V74.2l-13.2,15.9V74.4h-1.2v19l13.2-15.9L147.6,92.9L147.6,92.9z"/>
	<path class="st3" d="M263.5,73V61.1c0-0.8,0-1.6,0.5-2.2c0.3-0.3,0.7-0.7,1.5-0.7c1.3,0,2.1,0.9,2.1,2c0,1.2-0.9,2.2-2.4,2.2v2.4
		c0.2,0,1.1,0,2,0.5c1.2,0.6,1.4,1.8,1.4,2.5c0,1.9-1.5,3.1-3.4,3.1v2.4h0.3c0.6,0,1.5-0.1,2.1-0.2c2.6-0.6,3.9-2.8,3.9-5.1
		c0-2-0.9-3.1-1.3-3.5c-0.4-0.4-0.9-0.8-1.8-1.1c1.2-0.7,1.9-1.9,1.9-3.3c0-2.1-1.4-4.4-4.8-4.4c-3.1,0-4.8,1.8-4.8,4.9V73L263.5,73
		L263.5,73z"/>
</g>
</svg>
